# xmcd
#
# Track frame offsets: 
#        150
#        13443
#        25540
#        38280
#        53960
#        67535
#        80850
#        97268
#        108225
#        118600
#        128793
#        140328
#
# Disc length: 2063 seconds
#
# Revision: 0
# Processed by: cddbd v1.5.2PL0 Copyright (c) Steve Scherf et al.
# Submitted via: ExactAudioCopy v0.99pb4
#
DISCID=98080d0c
DTITLE=Jimmy Witherspoon - Some Of My Best Friends Are The Blues
DYEAR=1964
DGENRE=Blues
TTITLE0=Some Of My Best Friends Are The Blues
TTITLE1=Everytime I Think About You
TTITLE2=I Never Will Marry
TTITLE3=I Wanna Be Around
TTITLE4=Teardrops From My Eyes
TTITLE5=And The Angels Sing
TTITLE6=Who's Sorry Now
TTITLE7=I'm Comin' Down With The Blues
TTITLE8=You're Next
TTITLE9=Happy Blues
TTITLE10=That's Why I'm Leaving
TTITLE11=One Last Chance
EXTD=
EXTT0=
EXTT1=
EXTT2=
EXTT3=
EXTT4=
EXTT5=
EXTT6=
EXTT7=
EXTT8=
EXTT9=
EXTT10=
EXTT11=
PLAYORDER=
